<svg xmlns="http://www.w3.org/2000/svg" xmlns:xlink="http://www.w3.org/1999/xlink" width="500" zoomAndPan="magnify" viewBox="0 0 375 374.999991" height="500" preserveAspectRatio="xMidYMid meet" version="1.0"><defs><g/></defs><rect x="-37.5" width="450" fill="#ffffff" y="-37.499999" height="449.999989" fill-opacity="1"/><rect x="-37.5" width="450" fill="#000000" y="-37.499999" height="449.999989" fill-opacity="1"/><g fill="#ffffff" fill-opacity="1"><g transform="translate(169.423486, 229.883074)"><g><path d="M 10.605469 10.351562 L 10.605469 19.949219 C 23.738281 19.066406 31.1875 6.945312 31.1875 -5.050781 C 31.1875 -14.394531 26.136719 -21.84375 17.171875 -21.84375 C 9.972656 -21.84375 5.175781 -16.917969 5.175781 -10.351562 C 5.175781 -3.914062 9.972656 0.882812 16.792969 0.882812 C 17.421875 0.882812 18.179688 0.882812 18.9375 0.757812 C 18.558594 5.933594 15.65625 9.089844 10.605469 10.351562 Z M 5.933594 -56.4375 C 5.933594 -49.871094 10.730469 -45.074219 17.675781 -45.074219 C 24.496094 -45.074219 29.417969 -49.871094 29.417969 -56.4375 C 29.417969 -63.003906 24.496094 -67.925781 17.675781 -67.925781 C 10.730469 -67.925781 5.933594 -63.003906 5.933594 -56.4375 Z M 5.933594 -56.4375 "/></g></g></g><path fill="#000000" d="M 237.265625 157.195312 L 212.3125 199.074219 C 212.148438 199.351562 211.960938 199.605469 211.746094 199.84375 C 211.53125 200.082031 211.296875 200.296875 211.039062 200.488281 C 210.785156 200.679688 210.511719 200.84375 210.222656 200.980469 C 209.933594 201.117188 209.632812 201.226562 209.324219 201.304688 C 209.011719 201.382812 208.699219 201.433594 208.378906 201.449219 C 208.058594 201.464844 207.738281 201.449219 207.421875 201.402344 C 207.105469 201.359375 206.796875 201.28125 206.496094 201.175781 C 206.195312 201.066406 205.90625 200.933594 205.628906 200.769531 C 205.355469 200.605469 205.097656 200.414062 204.863281 200.199219 C 204.625 199.988281 204.410156 199.75 204.21875 199.496094 C 204.027344 199.238281 203.863281 198.964844 203.722656 198.675781 C 203.585938 198.386719 203.480469 198.085938 203.398438 197.777344 C 203.320312 197.464844 203.273438 197.152344 203.257812 196.832031 C 203.242188 196.511719 203.253906 196.195312 203.300781 195.878906 C 203.347656 195.5625 203.425781 195.25 203.53125 194.949219 C 203.636719 194.648438 203.773438 194.359375 203.9375 194.085938 L 228.890625 152.203125 C 229.054688 151.929688 229.242188 151.671875 229.457031 151.433594 C 229.671875 151.199219 229.90625 150.984375 230.164062 150.792969 C 230.417969 150.601562 230.691406 150.4375 230.980469 150.296875 C 231.269531 150.160156 231.570312 150.050781 231.878906 149.972656 C 232.191406 149.894531 232.503906 149.847656 232.824219 149.832031 C 233.144531 149.8125 233.464844 149.828125 233.78125 149.875 C 234.097656 149.921875 234.40625 150 234.707031 150.105469 C 235.007812 150.210938 235.296875 150.347656 235.574219 150.511719 C 235.847656 150.675781 236.105469 150.863281 236.339844 151.078125 C 236.578125 151.292969 236.792969 151.527344 236.984375 151.785156 C 237.175781 152.042969 237.339844 152.3125 237.480469 152.601562 C 237.617188 152.890625 237.722656 153.191406 237.804688 153.503906 C 237.882812 153.8125 237.929688 154.128906 237.945312 154.449219 C 237.960938 154.765625 237.949219 155.085938 237.902344 155.402344 C 237.855469 155.71875 237.777344 156.027344 237.671875 156.328125 C 237.566406 156.632812 237.429688 156.917969 237.265625 157.195312 Z M 202.332031 215.828125 L 177.382812 257.707031 C 177.21875 257.984375 177.027344 258.238281 176.8125 258.476562 C 176.601562 258.714844 176.363281 258.929688 176.109375 259.121094 C 175.851562 259.3125 175.578125 259.476562 175.289062 259.613281 C 175 259.75 174.699219 259.859375 174.390625 259.9375 C 174.082031 260.015625 173.765625 260.066406 173.445312 260.082031 C 173.125 260.097656 172.808594 260.082031 172.492188 260.035156 C 172.175781 259.992188 171.863281 259.914062 171.5625 259.808594 C 171.261719 259.699219 170.972656 259.566406 170.699219 259.402344 C 170.421875 259.238281 170.167969 259.046875 169.929688 258.832031 C 169.691406 258.621094 169.476562 258.382812 169.285156 258.128906 C 169.09375 257.871094 168.929688 257.597656 168.792969 257.308594 C 168.65625 257.019531 168.546875 256.71875 168.46875 256.410156 C 168.390625 256.097656 168.339844 255.785156 168.324219 255.464844 C 168.308594 255.144531 168.324219 254.828125 168.371094 254.511719 C 168.414062 254.195312 168.492188 253.882812 168.597656 253.582031 C 168.707031 253.28125 168.839844 252.992188 169.003906 252.71875 L 193.957031 210.835938 C 194.121094 210.5625 194.308594 210.304688 194.523438 210.066406 C 194.738281 209.832031 194.972656 209.617188 195.230469 209.425781 C 195.488281 209.234375 195.761719 209.070312 196.050781 208.929688 C 196.339844 208.792969 196.636719 208.683594 196.949219 208.605469 C 197.257812 208.527344 197.574219 208.480469 197.894531 208.464844 C 198.210938 208.445312 198.53125 208.460938 198.847656 208.507812 C 199.164062 208.554688 199.472656 208.628906 199.773438 208.738281 C 200.078125 208.84375 200.363281 208.980469 200.640625 209.144531 C 200.914062 209.308594 201.171875 209.496094 201.410156 209.710938 C 201.648438 209.925781 201.863281 210.160156 202.054688 210.417969 C 202.246094 210.675781 202.410156 210.945312 202.546875 211.234375 C 202.683594 211.523438 202.792969 211.824219 202.871094 212.136719 C 202.949219 212.445312 202.996094 212.761719 203.011719 213.082031 C 203.03125 213.398438 203.015625 213.71875 202.96875 214.035156 C 202.921875 214.351562 202.847656 214.660156 202.738281 214.960938 C 202.632812 215.265625 202.496094 215.550781 202.332031 215.828125 Z M 202.332031 215.828125 " fill-opacity="1" fill-rule="nonzero"/><path fill="#000000" d="M 214.070312 144.078125 L 187.539062 184.976562 C 187.363281 185.246094 187.164062 185.492188 186.941406 185.722656 C 186.71875 185.953125 186.476562 186.160156 186.210938 186.339844 C 185.949219 186.519531 185.667969 186.675781 185.375 186.800781 C 185.082031 186.929688 184.777344 187.023438 184.464844 187.089844 C 184.152344 187.15625 183.835938 187.195312 183.515625 187.199219 C 183.195312 187.203125 182.878906 187.175781 182.5625 187.117188 C 182.246094 187.058594 181.941406 186.972656 181.644531 186.851562 C 181.347656 186.734375 181.0625 186.585938 180.796875 186.414062 C 180.527344 186.238281 180.277344 186.039062 180.046875 185.816406 C 179.820312 185.59375 179.613281 185.351562 179.433594 185.085938 C 179.25 184.824219 179.097656 184.542969 178.96875 184.25 C 178.84375 183.957031 178.746094 183.652344 178.679688 183.339844 C 178.613281 183.027344 178.578125 182.710938 178.574219 182.390625 C 178.570312 182.070312 178.597656 181.753906 178.65625 181.4375 C 178.710938 181.121094 178.800781 180.816406 178.917969 180.519531 C 179.039062 180.222656 179.183594 179.9375 179.359375 179.671875 L 205.890625 138.773438 C 206.0625 138.503906 206.261719 138.253906 206.484375 138.023438 C 206.707031 137.796875 206.953125 137.589844 207.214844 137.410156 C 207.480469 137.226562 207.757812 137.074219 208.050781 136.945312 C 208.347656 136.820312 208.648438 136.722656 208.964844 136.65625 C 209.277344 136.589844 209.59375 136.554688 209.914062 136.550781 C 210.234375 136.546875 210.550781 136.574219 210.863281 136.632812 C 211.179688 136.6875 211.484375 136.777344 211.78125 136.894531 C 212.082031 137.015625 212.363281 137.160156 212.632812 137.335938 C 212.902344 137.507812 213.148438 137.707031 213.378906 137.929688 C 213.609375 138.15625 213.8125 138.398438 213.996094 138.660156 C 214.175781 138.925781 214.332031 139.203125 214.457031 139.5 C 214.582031 139.792969 214.679688 140.097656 214.746094 140.410156 C 214.8125 140.722656 214.847656 141.039062 214.851562 141.359375 C 214.859375 141.679688 214.832031 141.996094 214.773438 142.3125 C 214.714844 142.625 214.625 142.929688 214.507812 143.230469 C 214.390625 143.527344 214.242188 143.808594 214.070312 144.078125 Z M 176.925781 201.335938 L 150.394531 242.234375 C 150.222656 242.503906 150.023438 242.753906 149.800781 242.980469 C 149.578125 243.210938 149.332031 243.417969 149.070312 243.597656 C 148.804688 243.777344 148.527344 243.933594 148.234375 244.058594 C 147.9375 244.1875 147.636719 244.28125 147.320312 244.347656 C 147.007812 244.417969 146.691406 244.453125 146.371094 244.457031 C 146.050781 244.460938 145.734375 244.433594 145.421875 244.375 C 145.105469 244.316406 144.800781 244.230469 144.5 244.109375 C 144.203125 243.992188 143.921875 243.84375 143.652344 243.671875 C 143.382812 243.496094 143.136719 243.296875 142.90625 243.074219 C 142.675781 242.851562 142.472656 242.609375 142.289062 242.34375 C 142.109375 242.082031 141.953125 241.800781 141.828125 241.507812 C 141.703125 241.214844 141.605469 240.910156 141.539062 240.597656 C 141.472656 240.285156 141.4375 239.96875 141.429688 239.648438 C 141.425781 239.328125 141.453125 239.011719 141.511719 238.695312 C 141.570312 238.378906 141.660156 238.074219 141.777344 237.777344 C 141.894531 237.480469 142.042969 237.195312 142.214844 236.929688 L 168.746094 196.03125 C 168.921875 195.761719 169.121094 195.511719 169.34375 195.28125 C 169.566406 195.054688 169.808594 194.847656 170.074219 194.667969 C 170.335938 194.484375 170.617188 194.332031 170.910156 194.203125 C 171.203125 194.078125 171.507812 193.980469 171.820312 193.914062 C 172.132812 193.847656 172.449219 193.8125 172.769531 193.808594 C 173.089844 193.804688 173.40625 193.832031 173.722656 193.890625 C 174.035156 193.945312 174.34375 194.035156 174.640625 194.152344 C 174.9375 194.273438 175.222656 194.417969 175.488281 194.59375 C 175.757812 194.765625 176.007812 194.964844 176.234375 195.1875 C 176.464844 195.414062 176.671875 195.65625 176.851562 195.917969 C 177.035156 196.183594 177.1875 196.460938 177.316406 196.757812 C 177.441406 197.050781 177.539062 197.355469 177.605469 197.667969 C 177.671875 197.980469 177.707031 198.296875 177.710938 198.617188 C 177.714844 198.9375 177.6875 199.253906 177.628906 199.570312 C 177.570312 199.882812 177.484375 200.191406 177.363281 200.488281 C 177.246094 200.785156 177.101562 201.066406 176.925781 201.335938 Z M 176.925781 201.335938 " fill-opacity="1" fill-rule="nonzero"/></svg>